<svg width="135" height="40" viewBox="0 0 135 40" fill="none" xmlns="http://www.w3.org/2000/svg">
<path d="M21.7353 21.8659C20.1765 24.4606 18.6176 26.4431 17.0588 27.7843C15.5 29.1254 14.0588 29.7959 12.6765 29.7959C11.4706 29.7959 10.5882 29.3586 10.0588 28.4548C9.52941 27.5802 9.26471 26.1224 9.26471 24.0525V7.37609C9.26471 6.12245 9.38235 5.27697 9.58823 4.89796C9.79412 4.4898 10.1471 4.1691 10.6471 3.93586V3.35277C9.29412 3.41108 8.32353 3.46939 7.67647 3.46939C7.02941 3.46939 6.41176 3.49854 5.82353 3.49854C5.26471 3.49854 4.64706 3.46939 4 3.46939C3.35294 3.44023 2.35294 3.41108 1 3.35277V3.93586C1.52941 4.19825 1.88235 4.51895 2.08824 4.89796C2.29412 5.30612 2.38235 6.1516 2.38235 7.37609V22.6822C2.38235 25.3353 2.20588 27.2595 1.85294 28.4548C1.5 29.6501 0.882353 30.5248 0 31.0787V31.6618C2.11765 31.6035 4.02941 31.5452 5.76471 31.5452C7.47059 31.516 8.70588 31.516 9.5 31.516H20.3529L22.3235 22.0408L21.7353 21.8659Z" fill="white"/>
<path d="M27.2059 6.82216C28.0882 6.82216 28.8235 6.4723 29.4412 5.80175C30.0588 5.1312 30.3529 4.31487 30.3529 3.35277C30.3529 2.39067 30.0588 1.6035 29.4412 0.962099C28.8235 0.3207 28.0588 0 27.2059 0C26.3529 0 25.5882 0.3207 25.0294 0.962099C24.4412 1.6035 24.1471 2.41983 24.1471 3.35277C24.1471 4.34402 24.4412 5.16035 25.0294 5.8309C25.5882 6.50146 26.3235 6.82216 27.2059 6.82216Z" fill="white"/>
<path d="M30.7941 29.242C30.5 28.2216 30.3529 26.0641 30.3529 22.7114V8.42566C28.9412 8.74636 27.5294 9.00875 26.1765 9.27114C24.8235 9.53353 23.5 9.76676 22.2059 9.94169V10.4665C22.9412 10.5248 23.4706 10.8163 23.7647 11.3411C24.0294 11.8367 24.1765 13.0029 24.1765 14.8105V22.6239C24.1765 25.9475 24 28.105 23.6765 29.0962C23.3529 30.1166 22.7647 30.7872 21.9412 31.137L21.9706 31.6035C22.9118 31.5743 23.8235 31.516 24.7059 31.4869C25.5882 31.4577 26.4706 31.4577 27.2941 31.4577C28.1765 31.4577 29.0294 31.4577 29.8824 31.4869C30.7353 31.516 31.5588 31.5452 32.3824 31.6035L32.4118 31.137C31.6176 30.9038 31.0882 30.2624 30.7941 29.242Z" fill="white"/>
<path d="M54.3824 37.551C54.0588 36.5306 53.8824 34.3732 53.8824 31.0787V17.7259C53.8824 14.4023 54.0588 12.2741 54.3824 11.2536C54.7059 10.2624 55.2941 9.59184 56.1176 9.24198V8.74636C55.1176 8.80466 54.2353 8.86297 53.4412 8.89213C52.6471 8.92128 51.9118 8.95044 51.2353 8.95044C50.6176 8.95044 50.2059 8.95044 49.9118 8.92128C49.6471 8.92128 49.3824 8.92128 49.1471 8.89213C48.8824 9.38775 48.6471 9.91254 48.4706 10.4665C48.2647 10.9913 48.0588 11.5743 47.9118 12.1283C47.1765 10.9038 46.3235 9.97085 45.3235 9.32945C44.3235 8.7172 43.2059 8.3965 41.9706 8.3965C39.3235 8.3965 37.0882 9.44606 35.3824 11.5743C33.6471 13.7026 32.7941 16.414 32.7941 19.7376C32.7941 23.2945 33.6765 26.2099 35.3824 28.5423C37.1176 30.8746 39.2353 32.0117 41.8235 32.0117C43.0882 32.0117 44.2059 31.691 45.2059 31.0787C46.2059 30.4665 47.0588 29.5335 47.7647 28.309V31.0496C47.7647 34.4898 47.5588 36.7055 47.1471 37.6385C46.7353 38.6006 45.9706 39.242 44.8824 39.5335L44.9118 40C45.8529 39.9708 46.7941 39.9125 47.7353 39.8834C48.6765 39.8542 49.6176 39.8542 50.5588 39.8542C51.4706 39.8542 52.4118 39.8542 53.3529 39.8834C54.2941 39.9125 55.2353 39.9417 56.1765 40V39.5335C55.3235 39.242 54.7059 38.5714 54.3824 37.551ZM46.7059 27.2886C45.9706 28.9213 44.9412 29.7376 43.5882 29.7376C42.2353 29.7376 41.1765 28.8921 40.4118 27.172C39.6471 25.4519 39.2647 23.0612 39.2647 19.9708C39.2647 17.0262 39.6471 14.6939 40.4118 13.0321C41.1765 11.3703 42.2353 10.5248 43.5294 10.5248C44.9118 10.5248 45.9412 11.3411 46.6765 13.0029C47.4118 14.6356 47.7647 17.0554 47.7647 20.2041C47.7647 23.2653 47.4118 25.656 46.7059 27.2886Z" fill="white"/>
<path d="M76.2647 26.9679V8.42566C74.7647 8.74636 73.2941 9.0379 71.9412 9.30029C70.5882 9.56268 69.2941 9.76676 68.0588 9.94169V10.4373C68.7941 10.5248 69.3235 10.8163 69.6176 11.312C69.8824 11.8076 70.0294 12.9738 70.0294 14.7813V21.0496C70.0294 23.7026 69.7353 25.7726 69.1471 27.2595C68.5294 28.7464 67.7059 29.5044 66.6471 29.5044C65.6765 29.5044 64.9706 28.863 64.5294 27.551C64.0882 26.2391 63.8824 24.0816 63.8824 21.0204V14.3149C63.8824 13.8192 63.9118 13.0321 63.9412 11.9825C63.9706 10.9329 64 9.73761 64.0588 8.42566L63.1765 8.62974C59.7647 9.30029 57.2941 9.73761 55.7647 9.97085V10.4665C56.5294 10.5539 57.0294 10.8455 57.3235 11.3411C57.5882 11.8367 57.7353 13.0029 57.7353 14.8105V21.516C57.7353 25.1603 58.3235 27.9009 59.4412 29.6501C60.5588 31.4286 62.3235 32.3032 64.6471 32.3032C65.9412 32.3032 67.0588 31.9534 68 31.1953C68.9412 30.4665 69.7353 29.3586 70.3824 27.8426C70.5 28.5423 70.6177 29.1837 70.7353 29.7668C70.8529 30.3499 71 30.9329 71.1765 31.4869C72.1177 31.4577 72.7941 31.4286 73.2353 31.3994C73.6765 31.3994 74.0882 31.3994 74.4706 31.3994C74.8824 31.3994 75.3235 31.3994 75.8235 31.4286C76.2941 31.4577 76.9118 31.4577 77.6471 31.4869V30.8746C77.1471 30.4373 76.8235 29.9125 76.6177 29.3878C76.3824 28.8921 76.2647 28.0466 76.2647 26.9679Z" fill="white"/>
<path d="M134.912 8.86297C134.206 8.89213 133.529 8.92128 132.853 8.95044C132.147 8.97959 131.471 8.97959 130.794 8.97959C130.118 8.97959 129.441 8.95044 128.765 8.95044C128.088 8.92128 127.412 8.92128 126.735 8.86297V9.32945C127.529 9.53353 128.088 9.82507 128.441 10.2332C128.794 10.6414 128.941 11.1953 128.941 11.9242C128.941 12.2157 128.912 12.5656 128.824 13.0029C128.706 13.4402 128.588 13.965 128.412 14.6064L125.706 23.1778L122.265 14.6064C122.029 14.0233 121.882 13.5277 121.794 13.1195C121.676 12.7114 121.647 12.3324 121.647 11.9534C121.647 11.3411 121.794 10.8163 122.059 10.4082C122.324 10 122.794 9.65015 123.471 9.30029V8.83382C122.5 8.86297 121.559 8.89213 120.618 8.92128C119.676 8.95044 118.765 8.95044 117.853 8.95044C116.971 8.95044 116.118 8.92128 115.235 8.92128C115.206 8.92128 115.206 8.92128 115.176 8.92128L115.294 8.48396C115.147 8.45481 114.971 8.45481 114.824 8.42566C114.647 8.3965 114.441 8.3965 114.176 8.3965C113.118 8.3965 112.147 8.80466 111.294 9.59184C110.441 10.379 109.647 11.5452 109 13.1487V8.42566C107.647 8.74636 106.324 9.00875 104.971 9.27114C103.618 9.53353 102.235 9.76676 100.882 9.94169V10.4373C101.647 10.5248 102.147 10.8163 102.441 11.312C102.706 11.8076 102.853 12.9738 102.853 14.7813V22.5948C102.853 25.9184 102.706 28.0758 102.382 29.0671C102.059 30.0875 101.471 30.758 100.647 31.1079V31.5743C101.588 31.5452 102.5 31.4869 103.412 31.4577C104.294 31.4286 105.176 31.4286 106.059 31.4286C106.941 31.4286 107.794 31.4286 108.647 31.4577C109.471 31.4869 110.324 31.516 111.147 31.5743V31.1079C110.382 30.8455 109.853 30.2332 109.529 29.2128C109.206 28.1924 109.059 26.5015 109.059 24.1399C109.059 20.6997 109.265 18.2216 109.647 16.7347C110 15.2478 110.618 14.4898 111.471 14.4898C111.882 14.4898 112.294 14.6647 112.588 15.0146C112.912 15.3644 113.176 15.9184 113.412 16.6181L114.676 11.1662C114.912 11.6035 115.118 12.1283 115.353 12.7697L121.5 29.242C121.765 29.9125 121.912 30.4373 122 30.8163C122.059 31.1953 122.118 31.5743 122.118 31.9534C122.118 32.7114 121.912 33.3528 121.471 33.8775C121.059 34.4023 120.529 34.6647 119.912 34.6647C119.412 34.6647 119.029 34.4898 118.735 34.1399C118.441 33.7901 118.235 33.1487 118.088 32.2449L117.529 32.07L115.324 39.7085C115.529 39.7668 115.706 39.8251 115.912 39.8542C116.118 39.8834 116.294 39.9125 116.5 39.9125C118.235 39.9125 119.765 39.0962 121.088 37.5219C122.382 35.9184 123.912 32.7697 125.676 28.105L130.412 15.3353C130.912 13.965 131.559 12.7697 132.353 11.7201C133.147 10.6997 134 9.88338 135 9.27114L134.912 8.86297Z" fill="white"/>
<path d="M89.4118 8.42566C86.2941 8.42566 83.7353 9.53353 81.7941 11.691C79.8235 13.8776 78.8529 16.7347 78.8529 20.2624C78.8529 23.7318 79.8235 26.5889 81.8235 28.863C82.7059 29.8834 83.7059 30.6997 84.7941 31.2536L84.6765 27.1137C84.6471 25.0437 85.7353 24.2566 87.0588 22.8571C87.8529 22.0117 87.7059 20.4665 87.7059 19.3586V14.344C87.5882 14.344 87.4706 14.2274 87.4706 14.1108V13.2653C87.4706 13.1487 87.5588 13.0321 87.7059 13.0321V12.8571C87.7059 12.5073 87.9706 12.2449 88.2941 12.2449H90.2941C90.7059 12.2449 91.0294 12.5948 91.0294 13.0321C91.1471 13.0321 91.2647 13.1487 91.2647 13.2653V14.1108C91.2647 14.2274 91.1765 14.344 91.0294 14.344V19.3586C91.0294 20.4665 90.8529 22.0117 91.6765 22.8571C93 24.2566 94.0882 25.0146 94.0588 27.1137L93.9412 31.2536C95.0588 30.6997 96.0294 29.9125 96.9118 28.8921C98.8824 26.6472 99.8824 23.7318 99.8824 20.1749C99.8824 16.7055 98.9118 13.8484 97 11.6618C95.0294 9.50437 92.5 8.42566 89.4118 8.42566Z" fill="white"/>
</svg>
